<svg width="920" height="920" viewBox="0 0 920 920" fill="none" xmlns="http://www.w3.org/2000/svg">
<path d="M459.997 0C558.864 0 639.019 82.6315 639.019 184.555C639.019 206.186 635.526 227.485 629.517 248.124C646.73 236.082 665.41 226.188 685.592 219.428C779.63 187.922 880.625 240.974 911.186 337.918C941.747 434.862 890.284 538.977 796.247 570.482H796.232C776.263 577.17 755.519 580.326 734.608 580.809C751.049 593.97 765.961 609.237 778.443 626.948C836.557 709.408 818.831 824.829 738.829 884.739C658.841 944.65 546.881 926.376 488.766 843.901C476.433 826.402 467.115 807.055 460.209 786.719C453.151 806.881 443.682 826.195 431.214 843.885C373.1 926.344 261.139 944.634 181.152 884.724C101.165 824.813 83.4231 709.392 141.538 626.933C153.872 609.433 168.841 594.317 185.47 581.261C164.682 580.572 143.931 577.257 123.752 570.498C29.7142 539.008 -21.747 434.877 8.81406 337.934C39.3751 240.99 140.369 187.938 234.407 219.443H234.391C254.356 226.13 272.933 236.141 290.123 248.417C284.33 227.815 280.974 206.437 280.974 184.555C280.974 82.6316 361.129 9.96357e-05 459.997 0Z" fill="#570228"/>
</svg>
