<svg width="1080" height="1080" viewBox="0 0 1080 1080" fill="none" xmlns="http://www.w3.org/2000/svg">
<path d="M540 80C580.687 80 609.283 130.528 627.782 212.401C684.741 150.746 734.769 121.284 770.005 141.628C805.24 161.971 804.74 220.026 779.826 300.178C859.979 275.263 918.033 274.765 938.376 310C958.719 345.235 929.26 395.263 867.606 452.22C949.475 470.72 1000 499.314 1000 540C1000 580.686 949.475 609.28 867.606 627.78C929.26 684.737 958.719 734.765 938.376 770C918.033 805.235 859.979 804.737 779.826 779.822C804.74 859.974 805.24 918.029 770.005 938.372C734.769 958.716 684.741 929.254 627.782 867.599C609.283 949.472 580.687 1000 540 1000C499.314 1000 470.72 949.475 452.22 867.606C395.265 929.256 345.239 958.714 310.005 938.372C274.77 918.029 275.268 859.974 300.183 779.822C220.03 804.737 161.976 805.235 141.633 770C121.29 734.765 150.748 684.738 212.4 627.781C130.527 609.281 80 580.687 80 540C80 499.313 130.527 470.718 212.4 452.219C150.748 395.262 121.29 345.235 141.633 310C161.976 274.765 220.03 275.263 300.183 300.178C275.268 220.026 274.77 161.971 310.005 141.628C345.239 121.286 395.265 150.744 452.22 212.394C470.72 130.525 499.314 80 540 80Z" fill="#570228"/>
</svg>
